<?xml version="1.0" encoding="UTF-8" standalone="no"?>
<!-- Created with Inkscape (http://www.inkscape.org/) -->

<svg
   width="700"
   height="200"
   viewBox="0 0 185.20833 52.916666"
   version="1.1"
   id="svg1"
   sodipodi:docname="Logomarca.svg"
   inkscape:version="1.3.2 (091e20e, 2023-11-25, custom)"
   xmlns:inkscape="http://www.inkscape.org/namespaces/inkscape"
   xmlns:sodipodi="http://sodipodi.sourceforge.net/DTD/sodipodi-0.dtd"
   xmlns="http://www.w3.org/2000/svg"
   xmlns:svg="http://www.w3.org/2000/svg">
  <sodipodi:namedview
     id="namedview1"
     pagecolor="#ffffff"
     bordercolor="#000000"
     borderopacity="0.25"
     inkscape:showpageshadow="2"
     inkscape:pageopacity="0.0"
     inkscape:pagecheckerboard="0"
     inkscape:deskcolor="#d1d1d1"
     inkscape:document-units="mm"
     showguides="true"
     inkscape:zoom="0.5"
     inkscape:cx="494"
     inkscape:cy="305"
     inkscape:window-width="1366"
     inkscape:window-height="705"
     inkscape:window-x="-8"
     inkscape:window-y="-8"
     inkscape:window-maximized="1"
     inkscape:current-layer="layer1"
     inkscape:clip-to-page="false" />
  <defs
     id="defs1">
    <rect
       x="84.208305"
       y="350.08826"
       width="463.14569"
       height="302.52615"
       id="rect5" />
  </defs>
  <g
     inkscape:label="Camada 1"
     inkscape:groupmode="layer"
     id="layer1"
     transform="translate(-60.704978,-87.218553)">
    <text
       xml:space="preserve"
       transform="scale(0.26458333)"
       id="text5"
       style="font-style:normal;font-variant:normal;font-weight:normal;font-stretch:normal;font-size:192px;font-family:'GOST Common';-inkscape-font-specification:'GOST Common';white-space:pre;shape-inside:url(#rect5);display:inline;fill:#000000;stroke:#000000;stroke-width:15.1181;stroke-dasharray:none;stroke-opacity:1" />
    <g
       id="text11"
       style="fill:#161616;fill-opacity:1"
       transform="translate(8.2738948,8.3994498)"
       inkscape:export-filename="..\..\APYRA\Marketing\logo_black.png"
       inkscape:export-xdpi="96"
       inkscape:export-ydpi="96">
      <path
         style="color:#000000;-inkscape-font-specification:'Arial Bold';fill:#161616;fill-opacity:1;stroke-linecap:round;stroke-linejoin:round;-inkscape-stroke:none;paint-order:markers fill stroke"
         d="m 74.994141,87.21875 c -0.412064,4.4e-5 -0.78192,0.252818 -0.931641,0.636719 L 60.773437,121.97461 c -0.253724,0.65504 0.229182,1.36067 0.931641,1.36133 h 7.306641 c 0.421076,6.6e-4 0.797459,-0.2625 0.941406,-0.65821 l 2.576172,-7.09179 h 12.25 l 2.732422,7.10937 c 0.148718,0.3861 0.519838,0.64077 0.933593,0.64063 h 7.494141 c 0.706909,-7.1e-4 1.189971,-0.71463 0.927734,-1.3711 L 83.207031,87.845703 c -0.152575,-0.3794 -0.520758,-0.627692 -0.929687,-0.626953 z m 24.599609,0 c -0.552262,5.5e-5 -0.999945,0.447738 -1,1 v 34.11719 c 5.5e-5,0.55226 0.447738,0.99994 1,1 h 6.88867 c 0.55226,-6e-5 0.99994,-0.44774 1,-1 V 110.4668 h 3.49219 c 3.15344,0 5.57505,-0.15857 7.33789,-0.50782 0.007,-10e-4 0.013,-0.003 0.0195,-0.004 1.35233,-0.29474 2.66285,-0.8915 3.91797,-1.76172 l 0.002,-0.002 c 1.31915,-0.91994 2.39511,-2.17818 3.21875,-3.72461 0.85567,-1.60655 1.25782,-3.53638 1.25782,-5.751956 0,-2.876079 -0.70898,-5.332753 -2.1836,-7.242188 l -0.002,-0.002 c -1.4345,-1.872353 -3.28263,-3.139592 -5.44922,-3.707031 -1.53812,-0.411853 -4.23188,-0.544922 -8.44531,-0.544922 z m 28.25391,0 c -0.78693,3.61e-4 -1.26518,0.867397 -0.84571,1.533203 l 12.34375,19.515627 v 14.06836 c 6e-5,0.55226 0.44774,0.99994 1,1 h 6.86524 c 0.55226,-6e-5 0.99994,-0.44774 1,-1 v -14.02149 l 12.38867,-19.560544 c 0.42186,-0.666177 -0.0572,-1.535759 -0.8457,-1.535156 h -7.93555 c -0.35548,1.91e-4 -0.68414,0.189059 -0.86328,0.496094 l -7.01172,12.029297 -7.16016,-12.03711 c -0.18039,-0.302831 -0.50688,-0.488337 -0.85937,-0.488281 z m 35.35156,0 c -0.55226,5.5e-5 -0.99994,0.447738 -1,1 v 34.11719 c 6e-5,0.55226 0.44774,0.99994 1,1 h 6.88867 c 0.55226,-6e-5 0.99994,-0.44774 1,-1 v -13.24219 h 0.39648 c 1.52703,0 2.61531,0.15087 3.12696,0.33594 0.006,0.002 0.013,0.004 0.0195,0.006 0.5445,0.18536 1.09708,0.55085 1.66211,1.15625 l 0.008,0.008 c 0.51691,0.54152 1.7622,2.22826 3.52149,4.86719 l 0.002,0.002 4.98047,7.42578 c 0.18598,0.27612 0.49716,0.4416 0.83008,0.44141 h 8.23828 c 0.0515,-0.0142 0.1018,-0.0325 0.15039,-0.0547 0.034,0.0203 0.0693,0.0386 0.10547,0.0547 h 7.30859 c 0.42036,-1.7e-4 0.79575,-0.26318 0.93945,-0.65821 l 2.57617,-7.09179 h 12.25196 l 2.73242,7.10937 c 0.14872,0.3861 0.51984,0.64076 0.93359,0.64063 h 7.49414 c 0.70691,-7.1e-4 1.18998,-0.71463 0.92774,-1.3711 L 215.63086,87.845703 c -0.15231,-0.37874 -0.51952,-0.626896 -0.92774,-0.626953 h -7.28515 c -0.41206,4.4e-5 -0.78192,0.252818 -0.93164,0.636719 l -12.66406,32.515621 -3.26563,-5.21679 -0.002,-0.004 c -1.65847,-2.67515 -2.97509,-4.54705 -4.05078,-5.69141 -0.60266,-0.65075 -1.48116,-1.1833 -2.25782,-1.75976 2.15885,-0.59537 4.0478,-1.46322 5.3418,-2.89063 6.7e-4,-10e-4 0.001,-0.003 0.002,-0.004 1.67418,-1.86402 2.51368,-4.26547 2.51368,-7.021487 0,-2.181115 -0.54772,-4.181192 -1.64454,-5.912109 -1.09588,-1.729442 -2.61957,-2.981554 -4.47851,-3.660157 -1.8728,-0.705049 -4.58259,-0.992187 -8.28125,-0.992187 z m -76.798829,27.00977 c -0.148086,-0.38687 -0.519349,-0.64241 -0.933594,-0.64258 z M 107.48242,94.990234 h 2.32813 c 2.46164,0 4.12931,0.09368 4.77148,0.214844 0.003,6.78e-4 0.005,0.0013 0.008,0.002 0.92513,0.167037 1.61839,0.55011 2.20508,1.199219 0.55817,0.617549 0.83594,1.354985 0.83594,2.400391 0,0.834146 -0.20382,1.493882 -0.61328,2.083992 -0.003,0.004 -0.005,0.008 -0.008,0.0117 -0.39826,0.59136 -0.92354,1.01025 -1.67383,1.30274 -0.60369,0.23534 -2.41259,0.4668 -5.08399,0.4668 h -2.76953 z m 63.60547,0 h 4.37695 c 2.77464,0 4.53134,0.06114 4.87305,0.107422 0.93217,0.158132 1.54063,0.493988 1.97461,1.00586 0.005,0.0059 0.0103,0.01178 0.0156,0.01758 0.4398,0.494764 0.67774,1.13555 0.67774,2.103515 0,0.872506 -0.19103,1.507645 -0.52539,1.998049 -0.34681,0.50865 -0.78399,0.84062 -1.42578,1.05859 -0.43607,0.1481 -2.59252,0.36719 -5.86914,0.36719 h -4.09766 z m -92.523437,4.085938 3.253906,8.761718 H 75.375 Z m 132.423827,0 3.25391,8.761718 h -6.44336 z"
         id="path14"
         sodipodi:nodetypes="ccccccccccccccccccccccsccccssccccccccccccccccccccccccccccsccccccccccccccccccccccccccccccsscccccccsccssscsscccscccsssscccccccccc" />
    </g>
  </g>
</svg>
