<?xml version="1.0" encoding="UTF-8" standalone="no"?>
<!-- Created with Inkscape (http://www.inkscape.org/) -->

<svg
   width="307.58252"
   height="120.48603"
   viewBox="0 0 81.38121 31.878595"
   version="1.1"
   id="svg1"
   sodipodi:docname="Logomarca.svg"
   inkscape:version="1.3.2 (091e20e, 2023-11-25, custom)"
   xmlns:inkscape="http://www.inkscape.org/namespaces/inkscape"
   xmlns:sodipodi="http://sodipodi.sourceforge.net/DTD/sodipodi-0.dtd"
   xmlns="http://www.w3.org/2000/svg"
   xmlns:svg="http://www.w3.org/2000/svg">
  <sodipodi:namedview
     id="namedview1"
     pagecolor="#ffffff"
     bordercolor="#000000"
     borderopacity="0.25"
     inkscape:showpageshadow="2"
     inkscape:pageopacity="0.0"
     inkscape:pagecheckerboard="0"
     inkscape:deskcolor="#d1d1d1"
     inkscape:document-units="mm"
     showguides="true"
     inkscape:zoom="0.5"
     inkscape:cx="96"
     inkscape:cy="133"
     inkscape:window-width="1366"
     inkscape:window-height="705"
     inkscape:window-x="-8"
     inkscape:window-y="-8"
     inkscape:window-maximized="1"
     inkscape:current-layer="layer1"
     inkscape:clip-to-page="false" />
  <defs
     id="defs1">
    <rect
       x="84.208305"
       y="350.08826"
       width="463.14569"
       height="302.52615"
       id="rect5" />
  </defs>
  <g
     inkscape:label="Camada 1"
     inkscape:groupmode="layer"
     id="layer1"
     transform="translate(-105.62397,-88.835704)">
    <text
       xml:space="preserve"
       transform="scale(0.26458333)"
       id="text5"
       style="font-style:normal;font-variant:normal;font-weight:normal;font-stretch:normal;font-size:192px;font-family:'GOST Common';-inkscape-font-specification:'GOST Common';white-space:pre;shape-inside:url(#rect5);display:inline;fill:#000000;stroke:#000000;stroke-width:15.1181;stroke-dasharray:none;stroke-opacity:1" />
    <g
       id="g43"
       transform="translate(-2.3811756,-0.2654)"
       inkscape:export-filename="g43.png"
       inkscape:export-xdpi="95.364235"
       inkscape:export-ydpi="95.364235">
      <rect
         style="fill:#008000;stroke:none;stroke-width:3.03165;stroke-dasharray:none;stroke-opacity:1"
         id="rect25"
         width="6.1636729"
         height="24.547182"
         x="108.0212"
         y="92.894104" />
      <path
         style="color:#000000;-inkscape-font-specification:Arial;fill:#ffcc00;stroke:none;stroke-width:0.766167;-inkscape-stroke:none"
         d="m 169.72453,89.102091 c -2.04768,0 -3.96018,0.347749 -5.697,1.065442 -1.20735,0.498905 -2.19146,1.253713 -3.05261,2.119006 l -0.36386,0.399887 c -0.253,0.289451 -0.56617,0.527594 -0.77681,0.851246 -3.6e-4,5.67e-4 -7.6e-4,9.96e-4 -0.002,0.0016 -0.94609,1.442356 -1.44671,3.076546 -1.44671,4.772119 0,1.537553 0.40489,3.008599 1.20005,4.287099 l 0.006,0.0106 0.006,0.009 c 0.82548,1.28584 2.04546,2.3181 3.55385,3.10962 3e-4,1.6e-4 0.002,-1.6e-4 0.002,0 1.27924,0.6789 3.12137,1.2504 5.73422,1.88422 l 0.005,0.002 h 0.003 c 2.53835,0.60317 4.22525,1.07928 4.75747,1.28676 l 0.006,0.002 0.006,0.003 c 0.99887,0.38 1.57715,0.81441 1.83909,1.15492 l 0.005,0.006 0.005,0.006 c 0.2997,0.3821 0.43394,0.75696 0.43394,1.33507 0,0.54606 -0.1419,0.99021 -0.50718,1.49463 l -0.002,0.003 -0.002,0.002 c -0.3082,0.42847 -0.82754,0.83585 -1.70447,1.1763 -0.86715,0.33665 -1.91651,0.52381 -3.17099,0.52381 -1.40668,0 -2.61405,-0.23924 -3.66748,-0.69169 -7.7e-4,-4.2e-4 -0.002,-4.2e-4 -0.003,-0.002 -1.05938,-0.46834 -1.73195,-1.01856 -2.14317,-1.61182 -0.42687,-0.64717 -0.74686,-1.54558 -0.89122,-2.75329 a 3.2797095,3.2797095 0 0 0 7.6e-4,-0.0126 3.2797095,3.2797095 0 0 0 -3.27947,-3.27986 3.2797095,3.2797095 0 0 0 -3.27986,3.27986 3.2797095,3.2797095 0 0 0 0.0455,0.52263 l -0.0206,0.002 c 0.0575,2.11521 0.65113,4.09276 1.76703,5.81064 l 0.005,0.006 0.005,0.008 c 1.13698,1.71287 2.73658,3.02478 4.67789,3.86504 h 0.002 l 0.002,0.002 c 1.96131,0.84263 4.28236,1.22737 6.9525,1.22737 2.17458,0 4.19187,-0.39879 5.99593,-1.22144 l 0.002,-0.002 0.003,-0.002 c 1.81564,-0.83576 3.29467,-2.05279 4.31126,-3.61561 l 0.002,-0.003 0.003,-0.003 c 0.99055,-1.53757 1.51759,-3.25621 1.51759,-5.03106 0,-1.75602 -0.47453,-3.40878 -1.4186,-4.80498 l -0.002,-0.002 c -0.96358,-1.43664 -2.41402,-2.55414 -4.22297,-3.38795 l -0.003,-0.002 -0.005,-0.002 c -1.35299,-0.61499 -3.43039,-1.18648 -6.46787,-1.866 l -0.008,-0.003 c -2.90786,-0.66632 -4.73673,-1.52701 -4.85288,-1.632796 l -0.005,-0.0044 -0.005,-0.0044 c -0.42917,-0.383987 -0.57331,-0.696764 -0.57331,-1.32913 0,-0.703903 0.20895,-1.159665 0.94588,-1.74921 l 0.002,-0.0016 c 0.60372,-0.484468 1.884,-0.897964 3.92523,-0.897964 1.92658,0 3.15983,0.413909 3.8694,0.999717 l 0.005,0.0031 0.003,0.0016 c 0.7562,0.617112 1.15497,1.298521 1.31409,2.773079 l 0.0226,-0.0031 a 3.3389813,3.3389813 0 0 0 3.2478,2.600854 3.3389813,3.3389813 0 0 0 3.33886,-3.33926 3.3389813,3.3389813 0 0 0 -0.0174,-0.340497 c -0.0948,-1.785648 -0.57969,-2.904628 -1.55203,-4.384902 -1.02214,-1.556104 -2.51618,-2.738725 -4.33541,-3.496835 -1.79207,-0.764373 -3.82049,-1.126811 -6.04819,-1.126812 z"
         id="path12" />
      <path
         style="color:#000000;-inkscape-font-specification:Arial;fill:#ffff00;stroke:none;stroke-width:0.766167;-inkscape-stroke:none"
         d="m 169.72453,89.102091 c -2.04768,0 -3.96018,0.347749 -5.697,1.065442 -1.20735,0.498905 -2.19146,1.253713 -3.05261,2.119006 l -0.36386,0.399887 c -0.253,0.289451 -0.56617,0.527594 -0.77681,0.851246 -3.6e-4,5.67e-4 -7.6e-4,9.96e-4 -0.002,0.0016 -0.94609,1.442356 -1.44671,3.076546 -1.44671,4.772119 0,1.537553 0.40489,3.008599 1.20005,4.287099 l 0.006,0.0106 0.006,0.009 c 0.82548,1.28584 2.04546,2.3181 3.55385,3.10962 3e-4,1.6e-4 0.002,-1.6e-4 0.002,0 1.27924,0.6789 3.12137,1.2504 5.73422,1.88422 l 0.005,0.002 h 0.003 l 1.55408,-6.57727 -0.008,-0.003 c -2.90786,-0.66632 -4.73673,-1.52701 -4.85288,-1.632796 l -0.005,-0.0044 -0.005,-0.0044 c -0.42917,-0.383987 -0.57331,-0.696764 -0.57331,-1.32913 0,-0.703903 0.20895,-1.159665 0.94588,-1.74921 l 0.002,-0.0016 c 0.60372,-0.484468 1.884,-0.897964 3.92523,-0.897964 1.92658,0 3.15983,0.413909 3.8694,0.999717 l 0.005,0.0031 0.003,0.0016 c 0.7562,0.617112 1.15497,1.298521 1.31409,2.773079 l 0.0226,-0.0031 c 0.34408,1.517974 1.69133,2.596854 3.2478,2.600854 1.84413,-7e-5 3.33901,-1.49513 3.33886,-3.33926 0,-0.113721 -0.006,-0.227368 -0.0174,-0.340497 -0.0948,-1.785648 -0.57969,-2.904628 -1.55203,-4.384902 -1.02214,-1.556104 -2.51618,-2.738725 -4.33541,-3.496835 -1.79207,-0.764373 -3.82049,-1.126811 -6.04819,-1.126812 z"
         id="path41"
         sodipodi:nodetypes="csccscscccscccccccccssssccccccscsccc" />
      <path
         id="path13"
         style="color:#000000;-inkscape-font-specification:Arial;fill:#55d400;stroke:none;stroke-width:0.766167;-inkscape-stroke:none"
         d="m 111.23687,89.571266 c -1.77863,-2.2e-5 -3.2205,1.402256 -3.22048,3.180884 2.4e-4,2.113453 1.83786,3.209017 3.29295,3.176926 h 3.83456 c 1.93392,0 3.28856,0.170262 3.76646,0.324661 l 0.0103,0.0044 0.0107,0.0031 c 0.5132,0.157907 0.79104,0.373964 1.05198,0.79146 l 0.003,0.0044 0.003,0.0064 c 0.27858,0.437768 0.42483,0.929852 0.42483,1.609843 0,0.723491 -0.15662,1.16613 -0.41731,1.51601 l -0.006,0.009 -0.006,0.008 c -0.24514,0.3379 -0.61216,0.61195 -1.30656,0.81839 l -0.005,0.002 -0.003,0.002 c -0.39656,0.12038 -1.50374,0.25576 -3.07082,0.25576 h -4.53138 v 0.01 c -1.69628,0.0893 -3.0445,1.45263 -3.04468,3.17178 -3e-5,2.06486 1.78578,3.26856 3.42913,3.17061 h 4.56463 c 1.68254,0 2.91646,0.17218 3.57643,0.39514 l 0.0119,0.005 0.0123,0.003 c 0.67038,0.21451 1.08357,0.52579 1.42732,1.02505 l 0.005,0.005 0.003,0.006 c 0.34406,0.49152 0.52065,1.04238 0.52065,1.81968 0,0.67218 -0.13182,1.184 -0.36664,1.6237 -0.26104,0.47564 -0.54165,0.76823 -0.86787,0.9712 -0.36387,0.22641 -0.88538,0.42626 -1.58926,0.55233 l -0.003,0.002 h -0.005 c -0.26005,0.0479 -1.07853,0.10809 -2.23145,0.10809 h -5.46072 c -0.49557,0.0152 -3.04472,0.60527 -3.04469,3.19656 -2e-5,1.71929 1.34983,3.06867 3.04627,3.15674 l 5.45914,-7.6e-4 c 1.86132,0 3.47133,-0.15467 4.85764,-0.50124 l 0.005,-0.002 0.006,-0.002 c 1.37959,-0.35557 2.58984,-0.89019 3.59582,-1.64468 1.037,-0.77774 1.86098,-1.84894 2.4888,-3.13179 l 0.002,-0.003 c 0.66056,-1.33733 0.99338,-2.80271 0.99338,-4.32474 0,-1.90856 -0.56923,-3.69175 -1.68507,-5.14904 -0.571,-0.754 -1.27855,-1.38505 -2.08733,-1.90362 0.45685,-0.44369 0.89729,-0.90147 1.22698,-1.43801 0.78123,-1.27142 1.1957,-2.697877 1.1957,-4.16595 0,-1.56965 -0.46725,-3.100201 -1.33348,-4.477548 -0.87704,-1.427144 -2.15704,-2.52661 -3.70787,-3.197514 -1.56657,-0.696034 -3.46533,-0.984673 -5.7267,-0.984673 l -4.99938,-7.66e-4 c -0.0352,-0.0011 -0.0695,-0.0051 -0.10493,-0.0051 z"
         sodipodi:nodetypes="cccsccccccsccccccsccccsccccccscscccsccccccssccsccsscccccc" />
      <path
         id="path8"
         style="color:#000000;-inkscape-font-specification:Arial;fill:#000080;stroke:none;stroke-width:0.766167;-inkscape-stroke:none"
         d="m 134.04349,89.560427 c -1.77863,-2.3e-5 -3.22049,1.441847 -3.22047,3.220475 0.003,0.08679 0.009,0.173126 0.0186,0.259416 v 24.039872 c -0.0345,1.48485 0.96533,3.48044 3.20187,3.48041 1.77862,3e-5 3.23395,-1.44289 3.23392,-3.22151 -3e-5,-3.0688 0,-6.13887 0,-9.20822 h 0.047 v -6.25802 h -0.0465 l -5.1e-4,-6.153626 h 0.047 v -6.142261 h -2.96106 c -0.10604,-0.01069 -0.21278,-0.01588 -0.31936,-0.01602 z" />
      <circle
         style="fill:#ff00ff;stroke:none;stroke-width:4;stroke-dasharray:none;stroke-opacity:1"
         id="path39"
         cx="186.76712"
         cy="115.60144"
         r="2.6192415" />
      <circle
         style="fill:#ffff00;stroke:none;stroke-width:4.05546;stroke-dasharray:none;stroke-opacity:1"
         id="path40"
         cx="170.14645"
         cy="104.4249"
         r="3.4202096" />
      <path
         id="path42"
         style="color:#000000;-inkscape-font-specification:Arial;fill:#0000ff;stroke:none;stroke-width:0.766167;-inkscape-stroke:none"
         d="m 134.12308,89.571279 c -1.77863,-2.2e-5 -3.2205,1.402058 -3.22048,3.180684 2.4e-4,2.113451 1.83825,3.209158 3.29334,3.177067 h 9.39064 c 1.93392,0 3.2888,0.170129 3.7667,0.324528 l 0.0103,0.0047 0.0103,0.0031 c 0.5132,0.157907 0.79119,0.37367 1.05213,0.791166 l 0.003,0.0047 0.003,0.0062 c 0.27858,0.437768 0.42478,0.930247 0.42478,1.610238 0,0.420787 -0.0548,0.922914 -0.15038,1.340488 -0.0595,0.12388 -0.12607,0.2475 -0.20567,0.37259 -0.30731,0.4714 -0.71933,0.80688 -1.40818,1.06557 -0.33435,0.11963 -0.78952,0.22261 -1.35082,0.29714 -0.4792,0.037 -1.03705,0.0641 -1.69964,0.0641 h -10.08776 v 0.0103 c -1.69628,0.0893 -3.04459,1.45275 -3.04477,3.1719 -3e-5,2.06486 1.7859,3.2683 3.42924,3.17035 h 6.81096 c 0.28047,0.0191 0.48449,0.0426 0.58084,0.062 0.38168,0.0958 0.76963,0.26139 1.17926,0.52813 l 0.006,0.005 0.008,0.005 c 0.31348,0.19949 0.86206,0.70684 1.49758,1.51567 0.64466,0.82047 1.51591,2.07216 2.57814,3.72174 l 3.16363,4.92786 c 0.62949,1.04599 1.76043,1.68689 2.98121,1.6893 1.92604,9e-5 3.48722,-1.56161 3.48713,-3.48764 -1.8e-4,-0.80818 -0.34456,-1.56284 -0.79478,-2.21537 l -2.78381,-4.36046 -0.003,-0.005 c -0.92674,-1.42669 -1.93899,-2.59994 -3.00498,-3.63286 1.36038,-0.52049 2.56906,-1.1925 3.48041,-2.158 1.53478,-1.62597 2.33732,-3.74312 2.33732,-6.050285 0,-1.790522 -0.46641,-3.496613 -1.38234,-4.998144 -0.25147,-0.412269 -0.60281,-0.719572 -0.91158,-1.073836 l -0.20773,-0.247014 c -0.78462,-0.830754 -1.66938,-1.541637 -2.73575,-1.950268 -1.16019,-0.453881 -2.54812,-0.702168 -4.20492,-0.805636 -0.003,-1.75e-4 -0.005,-3.43e-4 -0.008,-5.17e-4 -0.003,-2.09e-4 -0.006,-3.09e-4 -0.009,-5.16e-4 -0.12836,-0.0079 -0.25954,-0.01447 -0.39119,-0.02067 -0.20319,-0.01073 -0.40883,-0.01965 -0.61857,-0.02481 -0.0885,-0.0023 -0.18137,-0.0025 -0.2713,-0.0041 -0.11337,-0.0015 -0.22375,-0.0057 -0.339,-0.0057 h -0.11627 c -0.0865,-5.56e-4 -0.16853,-0.0031 -0.25631,-0.0031 h -6.99337 v 0.0026 l -3.18947,-5.17e-4 c -0.0352,-0.0011 -0.0695,-0.0052 -0.10491,-0.0052 z" />
    </g>
  </g>
</svg>
